<svg xmlns="http://www.w3.org/2000/svg" viewBox="0 0 96 16"><title>cppassist-logo</title><polygon points="1.684 14.347 16.341 14.347 15.12 12.231 5.348 12.231 10.232 3.769 9.011 1.653 1.684 14.347" style="fill:#c36894"/><path d="M18.78,1.6533l7.321,12.6934,1.2358-2.1155-1.2214-2.1156L29.78,3.7688,28.5581,1.6533Zm8.5563,2.1155-2.4537,4.23-2.4384-4.23Z" style="fill:#c36894"/><polygon points="11.455 1.653 16.341 1.653 17.562 3.769 15.119 3.769 17.558 7.999 18.787 5.885 20.009 8 18.79 10.116 20.012 12.231 18.776 14.347 11.455 1.653" style="fill:#c36894"/><path d="M32.1346,10.2944c0-1.5518,1.2866-2.3652,4.2734-2.69-.03-.7686-.34-1.42-1.331-1.42a4.1355,4.1355,0,0,0-2.0406.71l-.6206-1.1387a5.6757,5.6757,0,0,1,2.9863-.9463c1.8042,0,2.7061,1.1094,2.7061,3.1348v4.3027H36.7034l-.1181-.7988h-.0591a3.5324,3.5324,0,0,1-2.2476.9766A2.03,2.03,0,0,1,32.1346,10.2944Zm4.2734,0V8.6684c-1.9814.251-2.6323.7686-2.6323,1.4932,0,.65.4438.9316,1.05.9316A2.3086,2.3086,0,0,0,36.408,10.2944Z" style="fill:#c36894"/><path d="M39.4231,11.4184l.7984-1.0937a3.228,3.228,0,0,0,2.0107.8125c.7837,0,1.1533-.3692,1.1533-.8721,0-.6064-.7836-.8721-1.5522-1.168-.9614-.3545-2.0405-.9023-2.0405-2.1142,0-1.2715,1.02-2.1739,2.6465-2.1739a3.916,3.916,0,0,1,2.41.8731l-.7837,1.0342a2.7046,2.7046,0,0,0-1.5967-.6211c-.7246,0-1.0649.3408-1.0649.7988,0,.5772.7246.7988,1.5083,1.0791.9907.37,2.085.8428,2.085,2.2031,0,1.2422-.9908,2.2481-2.8243,2.2481A4.5936,4.5936,0,0,1,39.4231,11.4184Z" style="fill:#c36894"/><path d="M45.7952,11.4184l.7984-1.0937a3.2275,3.2275,0,0,0,2.0107.8125c.7837,0,1.1533-.3692,1.1533-.8721,0-.6064-.7837-.8721-1.5522-1.168-.9615-.3545-2.0406-.9023-2.0406-2.1142,0-1.2715,1.02-2.1739,2.6465-2.1739a3.916,3.916,0,0,1,2.41.8731l-.7837,1.0342a2.7046,2.7046,0,0,0-1.5967-.6211c-.7246,0-1.0649.3408-1.0649.7988,0,.5772.7246.7988,1.5083,1.0791.9907.37,2.0849.8428,2.0849,2.2031,0,1.2422-.9907,2.2481-2.8242,2.2481A4.5936,4.5936,0,0,1,45.7952,11.4184Z" style="fill:#c36894"/><path d="M52.7,2.7544a1.0539,1.0539,0,1,1,1.05.9609A.9763.9763,0,0,1,52.7,2.7544Zm.1924,2.2324h1.7v7.26h-1.7Z" style="fill:#c36894"/><path d="M56.0408,11.4184l.7984-1.0937a3.2275,3.2275,0,0,0,2.0107.8125c.7837,0,1.1533-.3692,1.1533-.8721,0-.6064-.7837-.8721-1.5522-1.168C57.49,8.7426,56.41,8.1948,56.41,6.9829c0-1.2715,1.02-2.1739,2.6465-2.1739a3.916,3.916,0,0,1,2.41.8731l-.7837,1.0342a2.7059,2.7059,0,0,0-1.5967-.6211c-.7246,0-1.0649.3408-1.0649.7988,0,.5772.7246.7988,1.5083,1.0791.9907.37,2.0849.8428,2.0849,2.2031,0,1.2422-.9907,2.2481-2.8242,2.2481A4.5936,4.5936,0,0,1,56.0408,11.4184Z" style="fill:#c36894"/><path d="M63.0931,9.7924v-3.46H62.0584V5.061l1.1235-.0742.2071-1.9815h1.4194V4.9868h1.8481V6.3325H64.8084v3.46c0,.8575.3252,1.2715,1.02,1.2715a2.079,2.079,0,0,0,.7544-.1631l.2954,1.2569a4.6414,4.6414,0,0,1-1.4785.2666C63.7142,12.4243,63.0931,11.36,63.0931,9.7924Z" style="fill:#c36894"/></svg>