<?xml version="1.0" encoding="utf-8"?>
<!-- Generator: Adobe Illustrator 21.1.0, SVG Export Plug-In . SVG Version: 6.00 Build 0)  -->
<svg version="1.1" id="Layer_1" xmlns="http://www.w3.org/2000/svg" xmlns:xlink="http://www.w3.org/1999/xlink" x="0px" y="0px"
	 viewBox="0 0 68.570076 17.504883" enable-background="new 0 0 68.570076 17.504883" xml:space="preserve">
<g>
	<g>
		<path fill="#8D448E" d="M36.136845,7.628906c-0.014648-0.768555-0.340332-1.419922-1.315918-1.419922
			c-0.724609,0-1.404785,0.325195-2.040527,0.709961l-0.621094-1.138672c0.79834-0.50293,1.818848-0.946289,2.972168-0.946289
			c1.818359,0,2.705566,1.109375,2.705566,3.134766v4.302734h-1.389648l-0.133301-0.798828h-0.044434
			c-0.650391,0.547852-1.389648,0.976563-2.24707,0.976563c-1.271973,0-2.158691-0.857422-2.158691-2.129883
			C31.863895,8.767578,33.164677,7.954102,36.136845,7.628906z M34.554813,11.118164
			c0.591309,0,1.049805-0.295898,1.582031-0.798828V8.693359c-1.966309,0.250977-2.617188,0.768555-2.617188,1.493164
			C33.519657,10.836914,33.948368,11.118164,34.554813,11.118164z"/>
		<path fill="#8D448E" d="M39.980595,10.349609c0.650391,0.50293,1.271484,0.8125,2.010742,0.8125
			c0.783691,0,1.15332-0.369141,1.15332-0.87207c0-0.606445-0.783691-0.87207-1.552246-1.167969
			c-0.961426-0.354492-2.040527-0.902344-2.040527-2.114258c0-1.271484,1.02002-2.173828,2.646484-2.173828
			c1.005371,0,1.818848,0.414063,2.410156,0.873047l-0.783691,1.03418c-0.50293-0.369141-1.02002-0.621094-1.59668-0.621094
			c-0.724609,0-1.064941,0.34082-1.064941,0.798828c0,0.561523,0.724609,0.798828,1.508301,1.079102
			c0.990723,0.370117,2.084961,0.842773,2.084961,2.203125c0,1.242188-0.990723,2.248047-2.824219,2.248047
			c-0.990723,0-2.040527-0.428711-2.75-1.005859L39.980595,10.349609z"/>
		<path fill="#8D448E" d="M46.352665,10.349609c0.650391,0.50293,1.271484,0.8125,2.010742,0.8125
			c0.783691,0,1.15332-0.369141,1.15332-0.87207c0-0.606445-0.783691-0.87207-1.552246-1.167969
			c-0.961426-0.354492-2.040527-0.902344-2.040527-2.114258c0-1.271484,1.02002-2.173828,2.646484-2.173828
			c1.005371,0,1.818848,0.414063,2.410156,0.873047l-0.783691,1.03418c-0.50293-0.369141-1.02002-0.621094-1.59668-0.621094
			c-0.724609,0-1.064941,0.34082-1.064941,0.798828c0,0.561523,0.724609,0.798828,1.508301,1.079102
			c0.990723,0.370117,2.084961,0.842773,2.084961,2.203125c0,1.242188-0.990723,2.248047-2.824219,2.248047
			c-0.990723,0-2.040527-0.428711-2.75-1.005859L46.352665,10.349609z"/>
		<path fill="#8D448E" d="M52.458622,2.779297c0-0.577148,0.443359-0.976563,1.049805-0.976563
			c0.605957,0,1.049805,0.399414,1.049805,0.976563c0,0.561523-0.443848,0.960938-1.049805,0.960938
			C52.901981,3.740234,52.458622,3.34082,52.458622,2.779297z M52.651005,5.011719H54.3512v7.259766h-1.700195V5.011719z"/>
		<path fill="#8D448E" d="M56.59827,10.349609c0.650391,0.50293,1.271484,0.8125,2.010742,0.8125
			c0.783691,0,1.15332-0.369141,1.15332-0.87207c0-0.606445-0.783691-0.87207-1.552246-1.167969
			c-0.961426-0.354492-2.040527-0.902344-2.040527-2.114258c0-1.271484,1.02002-2.173828,2.646484-2.173828
			c1.005371,0,1.818848,0.414063,2.410156,0.873047l-0.783691,1.03418c-0.502441-0.369141-1.02002-0.621094-1.59668-0.621094
			c-0.724609,0-1.064941,0.34082-1.064941,0.798828c0,0.561523,0.724609,0.798828,1.508301,1.079102
			c0.990723,0.370117,2.084961,0.842773,2.084961,2.203125c0,1.242188-0.990723,2.248047-2.824219,2.248047
			c-0.990723,0-2.040527-0.428711-2.75-1.005859L56.59827,10.349609z"/>
		<path fill="#8D448E" d="M63.147587,6.357422h-1.034668V5.085938l1.123535-0.074219l0.207031-1.981445h1.419437v1.981445h1.848145
			v1.345703h-1.848145v3.459961c0,0.857422,0.325195,1.271484,1.02002,1.271484c0.251465,0,0.547363-0.074219,0.754395-0.163086
			l0.29541,1.256836c-0.398926,0.132813-0.901855,0.266602-1.478516,0.266602c-1.685551,0-2.306644-1.064453-2.306644-2.631836
			V6.357422z"/>
	</g>
</g>
<polygon fill="#8D448E" points="1.416144,14.371188 16.073765,14.371189 14.852379,12.255612 5.080376,12.255612 9.965087,3.79331 
	8.743701,1.677734 "/>
<path fill="#8D448E" d="M18.513052,1.677734l7.321011,12.693454l1.235779-2.115575l-1.221386-2.115576l3.663671-6.346727
	l-1.221386-2.115576H18.513052z M27.069317,3.79331l-2.453682,4.230393l-2.43837-4.230393L27.069317,3.79331z"/>
<polygon fill="#8D448E" points="11.187583,1.677734 16.073221,1.677734 17.294607,3.79331 14.851797,3.79331 17.290167,8.023704 
	18.519852,5.90914 19.742111,8.024211 18.522987,10.140038 19.744371,12.255613 18.508595,14.371188 "/>
</svg>
